<svg xmlns="http://www.w3.org/2000/svg" xmlns:xlink="http://www.w3.org/1999/xlink" width="1080" zoomAndPan="magnify" viewBox="0 0 810 809.999993" height="1080" preserveAspectRatio="xMidYMid meet" version="1.0"><defs><g/><clipPath id="2b84da214f"><path d="M 0 413 L 165 413 L 165 557.101562 L 0 557.101562 Z M 0 413 " clip-rule="nonzero"/></clipPath><clipPath id="fda7bca90a"><rect x="0" width="390" y="0" height="205"/></clipPath><clipPath id="14465a405a"><rect x="0" width="393" y="0" height="164"/></clipPath><clipPath id="b19356dcce"><rect x="0" width="229" y="0" height="385"/></clipPath></defs><path fill="#1c3439" d="M 318.277344 241.589844 C 317.332031 240.539062 316.277344 239.652344 315.160156 238.894531 C 315.75 236.535156 315.542969 234.460938 314.207031 232.976562 C 311.753906 230.246094 306.898438 231.082031 301.761719 233.734375 C 304.945312 228.910156 306.292969 224.171875 303.839844 221.4375 C 302.507812 219.957031 300.464844 219.542969 298.0625 219.878906 C 297.425781 218.679688 296.65625 217.53125 295.707031 216.480469 C 289.90625 210.023438 280.246094 209.0625 273.308594 213.929688 L 272.230469 210.789062 L 267.40625 221.058594 L 278.128906 217.347656 L 275.4375 216.09375 C 281.121094 212.398438 288.824219 213.269531 293.496094 218.46875 C 294.101562 219.144531 294.621094 219.863281 295.074219 220.613281 C 291.441406 221.851562 287.375 224.320312 283.726562 227.328125 L 282.679688 224.277344 L 277.855469 234.546875 L 288.578125 230.835938 L 285.746094 229.515625 C 289.742188 226.214844 293.464844 224.21875 296.335938 223.316406 C 298.085938 228.472656 296.738281 234.414062 292.4375 238.277344 L 284.472656 245.433594 L 285.296875 246.347656 L 283.101562 248.320312 L 282.199219 247.3125 L 257.496094 269.515625 L 258.488281 270.621094 L 255.238281 273.542969 L 256.167969 274.578125 C 253.78125 272.003906 249.75 271.804688 247.128906 274.160156 C 245.429688 275.6875 244.738281 277.910156 245.082031 280.011719 C 241.078125 281.40625 235.882812 285.183594 233.46875 295.242188 C 231.863281 301.925781 223.8125 305.433594 214.488281 309.496094 C 202.742188 314.617188 188.121094 320.988281 180.695312 336.460938 C 170.839844 356.992188 154.242188 388.460938 146.769531 402.519531 C 147.664062 402.996094 148.476562 403.605469 149.1875 404.320312 C 156.5625 390.445312 173.40625 358.523438 183.378906 337.75 C 190.324219 323.277344 203.796875 317.40625 215.679688 312.226562 C 225.730469 307.84375 234.414062 304.0625 236.363281 295.933594 C 238.523438 286.933594 242.960938 283.789062 246.195312 282.714844 C 246.332031 282.90625 246.480469 283.09375 246.640625 283.273438 C 249.019531 285.917969 253.105469 286.136719 255.75 283.757812 C 258.371094 281.402344 258.605469 277.371094 256.296875 274.722656 L 257.226562 275.757812 L 260.480469 272.835938 L 261.472656 273.945312 L 286.179688 251.742188 L 285.273438 250.738281 L 287.46875 248.765625 L 288.289062 249.679688 L 296.253906 242.523438 C 300.550781 238.65625 306.601562 237.949219 311.542969 240.238281 C 310.339844 242.996094 307.957031 246.484375 304.253906 250.109375 L 303.238281 247.152344 L 298.414062 257.421875 L 309.136719 253.710938 L 306.214844 252.347656 C 309.589844 249.046875 312.488281 245.265625 314.105469 241.789062 C 314.800781 242.316406 315.457031 242.90625 316.0625 243.578125 C 320.734375 248.777344 320.78125 256.527344 316.503906 261.789062 L 315.539062 258.976562 L 310.710938 269.246094 L 321.433594 265.539062 L 318.425781 264.132812 C 324.003906 257.753906 324.078125 248.046875 318.277344 241.589844 Z M 253.761719 281.542969 C 252.777344 282.425781 251.433594 282.628906 250.269531 282.210938 C 250.976562 282.1875 251.589844 281.65625 251.6875 280.925781 C 251.796875 280.113281 251.226562 279.363281 250.410156 279.253906 C 250.378906 279.25 249.433594 279.140625 247.996094 279.324219 C 247.886719 278.253906 248.257812 277.148438 249.117188 276.375 C 250.542969 275.097656 252.742188 275.214844 254.023438 276.636719 C 255.304688 278.0625 255.183594 280.261719 253.761719 281.542969 Z M 301.625 223.429688 C 302.65625 224.578125 302.066406 227.667969 299.628906 231.574219 C 300.28125 228.667969 300.164062 225.621094 299.265625 222.75 C 300.371094 222.710938 301.1875 222.941406 301.625 223.429688 Z M 303.683594 236.082031 C 307.824219 234.074219 310.960938 233.820312 311.996094 234.96875 C 312.429688 235.453125 312.574219 236.289062 312.417969 237.382812 C 309.660156 236.1875 306.640625 235.746094 303.683594 236.082031 Z M 303.683594 236.082031 " fill-opacity="1" fill-rule="nonzero"/><path fill="#1c3439" d="M 53.359375 442.273438 L 55.042969 480.226562 L 28.382812 515.320312 C 24.238281 520.773438 25.300781 528.558594 30.757812 532.703125 C 33 534.40625 35.636719 535.230469 38.253906 535.230469 C 41.996094 535.230469 45.699219 533.539062 48.140625 530.328125 L 77.515625 491.664062 C 79.269531 489.355469 80.160156 486.503906 80.03125 483.609375 L 78.96875 459.683594 L 53.511719 442.386719 C 53.457031 442.351562 53.410156 442.308594 53.359375 442.273438 Z M 53.359375 442.273438 " fill-opacity="1" fill-rule="nonzero"/><path fill="#1c3439" d="M 67.96875 357.359375 C 66.371094 357.359375 64.8125 357.203125 63.296875 356.910156 C 58.835938 359.679688 54.832031 364.332031 52.460938 371.21875 C 45.707031 391.242188 44.257812 404.273438 46.824219 426.320312 C 47.757812 431.121094 49.402344 434.617188 51.488281 437.171875 C 52.34375 438.445312 53.445312 439.582031 54.792969 440.5 L 95.964844 468.472656 L 107.832031 525.394531 C 109.054688 531.25 114.214844 535.269531 119.964844 535.269531 C 120.804688 535.269531 121.65625 535.1875 122.511719 535.007812 C 129.21875 533.609375 133.519531 527.039062 132.121094 520.332031 L 119.230469 458.496094 C 118.574219 455.347656 116.71875 452.578125 114.054688 450.769531 L 82.320312 429.207031 C 82.316406 429.097656 82.3125 428.996094 82.304688 428.882812 C 81.863281 425.585938 81.691406 422.179688 81.714844 418.730469 L 62.050781 380.484375 C 60.800781 378.054688 60.570312 375.285156 61.40625 372.6875 C 62.242188 370.085938 64.035156 367.96875 66.464844 366.71875 C 67.90625 365.976562 69.519531 365.585938 71.132812 365.585938 C 74.984375 365.585938 78.46875 367.710938 80.230469 371.136719 L 86.492188 383.316406 C 86.871094 381.46875 87.230469 379.695312 87.558594 378.007812 C 88.890625 373.390625 88.785156 368.347656 87.429688 364.070312 L 89.550781 363.234375 L 169.65625 331.625 C 173.734375 330.015625 175.734375 325.402344 174.125 321.324219 C 172.515625 317.246094 167.902344 315.246094 163.824219 316.855469 L 88.242188 346.679688 C 83.800781 353.125 76.371094 357.359375 67.96875 357.359375 Z M 67.96875 357.359375 " fill-opacity="1" fill-rule="nonzero"/><g clip-path="url(#2b84da214f)"><path fill="#1c3439" d="M 149.171875 418.75 C 151.070312 424.875 152.46875 435.519531 152.46875 452.207031 C 152.46875 467.890625 148.824219 476.878906 144.375 480.164062 C 140.511719 476.199219 137.527344 467.492188 137.527344 453.300781 C 137.527344 439.828125 138.523438 428.992188 140.261719 421.964844 L 137.140625 422.261719 C 135.128906 430.828125 134.550781 442.617188 134.550781 453.300781 C 134.550781 466.269531 137.136719 476.210938 141.535156 481.480469 C 141.125 481.566406 140.710938 481.609375 140.300781 481.609375 C 134.242188 481.609375 128.132812 472.519531 128.132812 452.207031 C 128.132812 441.105469 131.15625 430.152344 134.867188 422.476562 L 131.441406 422.800781 C 127.738281 431.113281 125.152344 442.019531 125.152344 452.207031 C 125.152344 471.878906 131.097656 484.589844 140.300781 484.589844 C 141.613281 484.589844 142.855469 484.320312 144.027344 483.820312 C 145.734375 485.035156 147.632812 485.679688 149.695312 485.679688 C 149.871094 485.679688 150.042969 485.667969 150.214844 485.660156 C 149.273438 487.28125 148.320312 488.882812 147.386719 490.445312 C 140.304688 502.320312 134.1875 512.574219 142.570312 517.796875 C 147.875 521.101562 150.578125 526.09375 149.292969 530.222656 C 148.382812 533.148438 142.832031 542.566406 109.558594 541.050781 C 90.828125 540.1875 59.179688 539.832031 57.664062 547.074219 C 57.300781 548.804688 58.453125 550.351562 61.097656 551.679688 C 52.359375 553.25 22.0625 554.226562 -5.457031 554.375 C -6.28125 554.382812 -6.941406 555.050781 -6.9375 555.875 C -6.933594 556.691406 -6.269531 557.355469 -5.449219 557.355469 C -5.445312 557.355469 -5.445312 557.355469 -5.441406 557.355469 C -5.269531 557.351562 12.097656 557.253906 29.316406 556.71875 C 65.320312 555.601562 65.636719 553.867188 65.945312 552.195312 C 66.140625 551.113281 65.460938 550.261719 63.917969 549.667969 C 60.980469 548.539062 60.605469 547.691406 60.578125 547.691406 L 60.574219 547.691406 C 61.125 546.179688 71.269531 542.273438 109.421875 544.023438 C 142.601562 545.554688 150.433594 536.585938 152.136719 531.105469 C 153.855469 525.582031 150.71875 519.363281 144.144531 515.269531 C 138.527344 511.769531 142.6875 504.136719 149.945312 491.96875 C 151.390625 489.542969 152.882812 487.039062 154.316406 484.480469 C 160.835938 480.890625 164.84375 469.441406 164.84375 453.300781 C 164.84375 437.695312 158.816406 420.410156 151.988281 413.339844 C 151.617188 415.414062 150.621094 417.296875 149.171875 418.75 Z M 149.695312 482.703125 C 148.746094 482.703125 147.792969 482.476562 146.863281 482.023438 C 152.226562 477.375 155.445312 466.675781 155.445312 452.207031 C 155.445312 441.09375 154.828125 428.777344 152.632812 420.140625 C 156.710938 428.808594 159.789062 444.191406 159.789062 459.390625 C 159.789062 466.835938 156.316406 474.695312 152.191406 482.171875 C 151.367188 482.523438 150.53125 482.703125 149.695312 482.703125 Z M 149.695312 482.703125 " fill-opacity="1" fill-rule="nonzero"/></g><path fill="#1c3439" d="M 141.1875 403.632812 L 96.554688 407.875 L 78.199219 372.179688 C 76.195312 368.277344 71.410156 366.742188 67.507812 368.75 C 63.609375 370.753906 62.074219 375.539062 64.078125 379.441406 L 84.894531 419.917969 C 86.261719 422.582031 89 424.226562 91.949219 424.226562 C 92.199219 424.226562 92.453125 424.214844 92.703125 424.191406 L 142.6875 419.441406 C 147.054688 419.023438 150.257812 415.148438 149.839844 410.785156 C 149.425781 406.417969 145.539062 403.214844 141.1875 403.632812 Z M 141.1875 403.632812 " fill-opacity="1" fill-rule="nonzero"/><path fill="#1c3439" d="M 90.296875 332.75 C 90.296875 333.480469 90.261719 334.210938 90.191406 334.9375 C 90.121094 335.664062 90.011719 336.386719 89.871094 337.105469 C 89.726562 337.824219 89.550781 338.53125 89.335938 339.230469 C 89.125 339.929688 88.878906 340.617188 88.597656 341.292969 C 88.320312 341.96875 88.007812 342.628906 87.660156 343.273438 C 87.316406 343.917969 86.941406 344.546875 86.535156 345.15625 C 86.128906 345.761719 85.695312 346.347656 85.230469 346.914062 C 84.765625 347.480469 84.273438 348.019531 83.757812 348.539062 C 83.242188 349.054688 82.699219 349.546875 82.132812 350.011719 C 81.570312 350.472656 80.984375 350.910156 80.375 351.316406 C 79.765625 351.722656 79.140625 352.097656 78.496094 352.441406 C 77.851562 352.785156 77.191406 353.097656 76.515625 353.378906 C 75.839844 353.660156 75.152344 353.90625 74.449219 354.117188 C 73.75 354.328125 73.042969 354.507812 72.324219 354.648438 C 71.609375 354.792969 70.886719 354.898438 70.15625 354.972656 C 69.429688 355.042969 68.699219 355.078125 67.96875 355.078125 C 67.238281 355.078125 66.507812 355.042969 65.78125 354.972656 C 65.050781 354.898438 64.328125 354.792969 63.613281 354.648438 C 62.894531 354.507812 62.1875 354.328125 61.488281 354.117188 C 60.789062 353.90625 60.097656 353.660156 59.421875 353.378906 C 58.75 353.097656 58.085938 352.785156 57.441406 352.441406 C 56.796875 352.097656 56.171875 351.722656 55.5625 351.316406 C 54.957031 350.910156 54.367188 350.472656 53.804688 350.011719 C 53.238281 349.546875 52.695312 349.054688 52.179688 348.539062 C 51.664062 348.019531 51.171875 347.480469 50.707031 346.914062 C 50.242188 346.347656 49.808594 345.761719 49.402344 345.15625 C 48.996094 344.546875 48.621094 343.917969 48.277344 343.273438 C 47.929688 342.628906 47.617188 341.96875 47.339844 341.292969 C 47.058594 340.617188 46.8125 339.929688 46.601562 339.230469 C 46.386719 338.53125 46.210938 337.824219 46.070312 337.105469 C 45.925781 336.386719 45.820312 335.664062 45.746094 334.9375 C 45.675781 334.210938 45.640625 333.480469 45.640625 332.75 C 45.640625 332.015625 45.675781 331.289062 45.746094 330.558594 C 45.820312 329.832031 45.925781 329.109375 46.070312 328.394531 C 46.210938 327.675781 46.386719 326.964844 46.601562 326.265625 C 46.8125 325.566406 47.058594 324.878906 47.339844 324.203125 C 47.617188 323.527344 47.929688 322.867188 48.277344 322.222656 C 48.621094 321.578125 48.996094 320.953125 49.402344 320.34375 C 49.808594 319.734375 50.242188 319.148438 50.707031 318.582031 C 51.171875 318.019531 51.664062 317.476562 52.179688 316.960938 C 52.695312 316.441406 53.238281 315.953125 53.804688 315.488281 C 54.367188 315.023438 54.957031 314.589844 55.5625 314.183594 C 56.171875 313.777344 56.796875 313.402344 57.441406 313.054688 C 58.085938 312.710938 58.75 312.398438 59.421875 312.117188 C 60.097656 311.839844 60.789062 311.59375 61.488281 311.382812 C 62.1875 311.167969 62.894531 310.992188 63.613281 310.847656 C 64.328125 310.707031 65.050781 310.597656 65.78125 310.527344 C 66.507812 310.457031 67.238281 310.417969 67.96875 310.417969 C 68.699219 310.417969 69.429688 310.457031 70.15625 310.527344 C 70.886719 310.597656 71.609375 310.707031 72.324219 310.847656 C 73.042969 310.992188 73.75 311.167969 74.449219 311.382812 C 75.152344 311.59375 75.839844 311.839844 76.515625 312.117188 C 77.191406 312.398438 77.851562 312.710938 78.496094 313.054688 C 79.140625 313.402344 79.765625 313.777344 80.375 314.183594 C 80.984375 314.589844 81.570312 315.023438 82.132812 315.488281 C 82.699219 315.953125 83.242188 316.441406 83.757812 316.960938 C 84.273438 317.476562 84.765625 318.019531 85.230469 318.582031 C 85.695312 319.148438 86.128906 319.734375 86.535156 320.34375 C 86.941406 320.953125 87.316406 321.578125 87.660156 322.222656 C 88.007812 322.867188 88.320312 323.527344 88.597656 324.203125 C 88.878906 324.878906 89.125 325.566406 89.335938 326.265625 C 89.550781 326.964844 89.726562 327.675781 89.871094 328.394531 C 90.011719 329.109375 90.121094 329.832031 90.191406 330.558594 C 90.261719 331.289062 90.296875 332.015625 90.296875 332.75 Z M 90.296875 332.75 " fill-opacity="1" fill-rule="nonzero"/><g transform="matrix(1, 0, 0, 1, 417, 281)"><g clip-path="url(#fda7bca90a)"><g fill="#234147" fill-opacity="1"><g transform="translate(0.759094, 162.113849)"><g><path d="M 69.984375 2.421875 C 60.910156 2.421875 52.5625 0.863281 44.9375 -2.25 C 37.3125 -5.363281 30.691406 -9.753906 25.078125 -15.421875 C 19.472656 -21.085938 15.125 -27.742188 12.03125 -35.390625 C 8.945312 -43.046875 7.40625 -51.378906 7.40625 -60.390625 C 7.40625 -69.460938 8.945312 -77.820312 12.03125 -85.46875 C 15.125 -93.125 19.472656 -99.769531 25.078125 -105.40625 C 30.691406 -111.039062 37.3125 -115.414062 44.9375 -118.53125 C 52.5625 -121.644531 60.910156 -123.203125 69.984375 -123.203125 C 78.992188 -123.203125 87.296875 -121.644531 94.890625 -118.53125 C 102.492188 -115.414062 109.097656 -111.039062 114.703125 -105.40625 C 120.316406 -99.769531 124.664062 -93.125 127.75 -85.46875 C 130.84375 -77.820312 132.390625 -69.460938 132.390625 -60.390625 C 132.390625 -51.378906 130.84375 -43.046875 127.75 -35.390625 C 124.664062 -27.742188 120.316406 -21.085938 114.703125 -15.421875 C 109.097656 -9.753906 102.492188 -5.363281 94.890625 -2.25 C 87.296875 0.863281 78.992188 2.421875 69.984375 2.421875 Z M 69.90625 -7.09375 C 77.363281 -7.09375 84.234375 -8.421875 90.515625 -11.078125 C 96.796875 -13.734375 102.253906 -17.460938 106.890625 -22.265625 C 111.535156 -27.066406 115.132812 -32.71875 117.6875 -39.21875 C 120.238281 -45.71875 121.515625 -52.773438 121.515625 -60.390625 C 121.515625 -68.015625 120.238281 -75.070312 117.6875 -81.5625 C 115.132812 -88.0625 111.535156 -93.710938 106.890625 -98.515625 C 102.253906 -103.328125 96.796875 -107.0625 90.515625 -109.71875 C 84.234375 -112.375 77.363281 -113.703125 69.90625 -113.703125 C 62.488281 -113.703125 55.640625 -112.375 49.359375 -109.71875 C 43.078125 -107.0625 37.613281 -103.328125 32.96875 -98.515625 C 28.332031 -93.710938 24.722656 -88.078125 22.140625 -81.609375 C 19.566406 -75.140625 18.28125 -68.066406 18.28125 -60.390625 C 18.28125 -52.710938 19.566406 -45.640625 22.140625 -39.171875 C 24.722656 -32.703125 28.332031 -27.066406 32.96875 -22.265625 C 37.613281 -17.460938 43.078125 -13.734375 49.359375 -11.078125 C 55.640625 -8.421875 62.488281 -7.09375 69.90625 -7.09375 Z M 69.90625 -7.09375 "/></g></g></g><g fill="#234147" fill-opacity="1"><g transform="translate(140.548157, 162.113849)"><g><path d="M 69.984375 2.421875 C 60.910156 2.421875 52.5625 0.863281 44.9375 -2.25 C 37.3125 -5.363281 30.691406 -9.753906 25.078125 -15.421875 C 19.472656 -21.085938 15.125 -27.742188 12.03125 -35.390625 C 8.945312 -43.046875 7.40625 -51.378906 7.40625 -60.390625 C 7.40625 -69.460938 8.945312 -77.820312 12.03125 -85.46875 C 15.125 -93.125 19.472656 -99.769531 25.078125 -105.40625 C 30.691406 -111.039062 37.3125 -115.414062 44.9375 -118.53125 C 52.5625 -121.644531 60.910156 -123.203125 69.984375 -123.203125 C 78.992188 -123.203125 87.296875 -121.644531 94.890625 -118.53125 C 102.492188 -115.414062 109.097656 -111.039062 114.703125 -105.40625 C 120.316406 -99.769531 124.664062 -93.125 127.75 -85.46875 C 130.84375 -77.820312 132.390625 -69.460938 132.390625 -60.390625 C 132.390625 -51.378906 130.84375 -43.046875 127.75 -35.390625 C 124.664062 -27.742188 120.316406 -21.085938 114.703125 -15.421875 C 109.097656 -9.753906 102.492188 -5.363281 94.890625 -2.25 C 87.296875 0.863281 78.992188 2.421875 69.984375 2.421875 Z M 69.90625 -7.09375 C 77.363281 -7.09375 84.234375 -8.421875 90.515625 -11.078125 C 96.796875 -13.734375 102.253906 -17.460938 106.890625 -22.265625 C 111.535156 -27.066406 115.132812 -32.71875 117.6875 -39.21875 C 120.238281 -45.71875 121.515625 -52.773438 121.515625 -60.390625 C 121.515625 -68.015625 120.238281 -75.070312 117.6875 -81.5625 C 115.132812 -88.0625 111.535156 -93.710938 106.890625 -98.515625 C 102.253906 -103.328125 96.796875 -107.0625 90.515625 -109.71875 C 84.234375 -112.375 77.363281 -113.703125 69.90625 -113.703125 C 62.488281 -113.703125 55.640625 -112.375 49.359375 -109.71875 C 43.078125 -107.0625 37.613281 -103.328125 32.96875 -98.515625 C 28.332031 -93.710938 24.722656 -88.078125 22.140625 -81.609375 C 19.566406 -75.140625 18.28125 -68.066406 18.28125 -60.390625 C 18.28125 -52.710938 19.566406 -45.640625 22.140625 -39.171875 C 24.722656 -32.703125 28.332031 -27.066406 32.96875 -22.265625 C 37.613281 -17.460938 43.078125 -13.734375 49.359375 -11.078125 C 55.640625 -8.421875 62.488281 -7.09375 69.90625 -7.09375 Z M 69.90625 -7.09375 "/></g></g></g><g fill="#234147" fill-opacity="1"><g transform="translate(280.337221, 162.113849)"><g><path d="M 24 0 L 13.28125 0 L 13.28125 -120.796875 L 23.921875 -120.796875 L 23.921875 -43.734375 C 25.421875 -45.878906 26.867188 -47.890625 28.265625 -49.765625 C 29.660156 -51.640625 30.945312 -53.332031 32.125 -54.84375 L 84.546875 -120.796875 L 97.359375 -120.796875 L 53.46875 -65.625 L 106.625 0 L 92.765625 0 L 46.546875 -57.015625 L 24 -28.59375 Z M 24 0 "/></g></g></g></g></g><g transform="matrix(1, 0, 0, 1, 417, 414)"><g clip-path="url(#14465a405a)"><g fill="#234147" fill-opacity="1"><g transform="translate(0.85551, 125.871678)"><g><path d="M 68.453125 0 L 61.359375 0 L 61.09375 -12.25 C 58.789062 -7.863281 55.628906 -4.507812 51.609375 -2.1875 C 47.585938 0.132812 42.773438 1.296875 37.171875 1.296875 C 28.554688 1.296875 21.78125 -1.316406 16.84375 -6.546875 C 11.914062 -11.785156 9.453125 -18.992188 9.453125 -28.171875 L 9.453125 -65.203125 L 17.46875 -65.203125 L 17.46875 -28.6875 C 17.46875 -21.726562 19.359375 -16.21875 23.140625 -12.15625 C 26.921875 -8.09375 32.03125 -6.0625 38.46875 -6.0625 C 45.113281 -6.0625 50.4375 -8.203125 54.4375 -12.484375 C 58.4375 -16.765625 60.4375 -22.46875 60.4375 -29.59375 L 60.4375 -65.203125 L 68.453125 -65.203125 Z M 68.453125 0 "/></g></g></g><g fill="#234147" fill-opacity="1"><g transform="translate(80.067198, 125.871678)"><g><path d="M 70.15625 0 L 62.140625 0 L 62.140625 -37.296875 C 62.140625 -44.078125 60.3125 -49.410156 56.65625 -53.296875 C 53.007812 -57.191406 47.988281 -59.140625 41.59375 -59.140625 C 37.113281 -59.140625 33.15625 -58.171875 29.71875 -56.234375 C 26.289062 -54.296875 23.609375 -51.566406 21.671875 -48.046875 C 19.742188 -44.523438 18.78125 -40.375 18.78125 -35.59375 L 18.78125 0 L 10.765625 0 L 10.765625 -65.203125 L 17.859375 -65.203125 L 18.125 -52.9375 C 20.382812 -57.332031 23.664062 -60.691406 27.96875 -63.015625 C 32.269531 -65.335938 37.25 -66.5 42.90625 -66.5 C 51.332031 -66.5 57.976562 -63.957031 62.84375 -58.875 C 67.71875 -53.789062 70.15625 -46.859375 70.15625 -38.078125 Z M 70.15625 0 "/></g></g></g><g fill="#234147" fill-opacity="1"><g transform="translate(158.366064, 125.871678)"><g><path d="M 46.234375 -1.5 C 42.273438 0.363281 38.359375 1.296875 34.484375 1.296875 C 30.835938 1.296875 27.65625 0.492188 24.9375 -1.109375 C 22.21875 -2.710938 20.097656 -4.96875 18.578125 -7.875 C 17.054688 -10.789062 16.296875 -14.1875 16.296875 -18.0625 L 16.296875 -57.96875 L 4.890625 -57.96875 L 4.890625 -65.203125 L 16.625 -65.203125 L 16.625 -81.5 L 24.3125 -81.5 L 24.3125 -65.203125 L 44.265625 -65.203125 L 44.265625 -57.96875 L 24.3125 -57.96875 L 24.3125 -19.5 C 24.3125 -15.40625 25.398438 -12.117188 27.578125 -9.640625 C 29.753906 -7.171875 32.625 -5.9375 36.1875 -5.9375 C 39.007812 -5.9375 41.859375 -6.757812 44.734375 -8.40625 Z M 46.234375 -1.5 "/></g></g></g><g fill="#234147" fill-opacity="1"><g transform="translate(209.478761, 125.871678)"><g><path d="M 67.359375 -8.15625 C 59.359375 -1.851562 50.488281 1.296875 40.75 1.296875 C 34.007812 1.296875 27.976562 -0.210938 22.65625 -3.234375 C 17.332031 -6.253906 13.148438 -10.367188 10.109375 -15.578125 C 7.066406 -20.796875 5.546875 -26.707031 5.546875 -33.3125 C 5.546875 -39.707031 6.96875 -45.398438 9.8125 -50.390625 C 12.65625 -55.390625 16.554688 -59.320312 21.515625 -62.1875 C 26.472656 -65.0625 32.101562 -66.5 38.40625 -66.5 C 44.789062 -66.5 50.414062 -64.988281 55.28125 -61.96875 C 60.15625 -58.945312 63.960938 -54.773438 66.703125 -49.453125 C 69.441406 -44.128906 70.8125 -37.96875 70.8125 -30.96875 L 70.8125 -28.953125 L 14.21875 -28.953125 C 14.738281 -24.390625 16.234375 -20.390625 18.703125 -16.953125 C 21.179688 -13.515625 24.390625 -10.835938 28.328125 -8.921875 C 32.265625 -7.015625 36.664062 -6.0625 41.53125 -6.0625 C 49.53125 -6.0625 56.878906 -8.710938 63.578125 -14.015625 Z M 13.953125 -35.859375 L 63.3125 -35.859375 C 62.914062 -40.515625 61.628906 -44.578125 59.453125 -48.046875 C 57.285156 -51.523438 54.429688 -54.242188 50.890625 -56.203125 C 47.347656 -58.160156 43.316406 -59.140625 38.796875 -59.140625 C 34.234375 -59.140625 30.132812 -58.160156 26.5 -56.203125 C 22.875 -54.242188 19.960938 -51.515625 17.765625 -48.015625 C 15.566406 -44.515625 14.296875 -40.460938 13.953125 -35.859375 Z M 13.953125 -35.859375 "/></g></g></g><g fill="#234147" fill-opacity="1"><g transform="translate(285.82188, 125.871678)"><g><path d="M 18.78125 0 L 10.765625 0 L 10.765625 -65.203125 L 17.859375 -65.203125 L 18.1875 -50.796875 C 20.363281 -55.835938 23.59375 -59.710938 27.875 -62.421875 C 32.15625 -65.140625 37.164062 -66.5 42.90625 -66.5 C 43.945312 -66.5 45.019531 -66.441406 46.125 -66.328125 C 47.238281 -66.222656 48.335938 -66.066406 49.421875 -65.859375 L 48.4375 -58.609375 C 46.3125 -59.046875 44.179688 -59.265625 42.046875 -59.265625 C 37.535156 -59.265625 33.519531 -58.15625 30 -55.9375 C 26.476562 -53.71875 23.726562 -50.664062 21.75 -46.78125 C 19.769531 -42.894531 18.78125 -38.40625 18.78125 -33.3125 Z M 18.78125 0 "/></g></g></g><g fill="#234147" fill-opacity="1"><g transform="translate(336.86943, 125.871678)"><g><path d="M 6.1875 -5.671875 L 8.546875 -13.109375 C 10.148438 -11.628906 11.941406 -10.367188 13.921875 -9.328125 C 15.898438 -8.285156 17.960938 -7.476562 20.109375 -6.90625 C 22.265625 -6.34375 24.453125 -6.0625 26.671875 -6.0625 C 31.097656 -6.0625 34.703125 -7.144531 37.484375 -9.3125 C 40.265625 -11.488281 41.65625 -14.316406 41.65625 -17.796875 C 41.65625 -20.273438 40.957031 -22.304688 39.5625 -23.890625 C 38.175781 -25.484375 36.351562 -26.84375 34.09375 -27.96875 C 31.832031 -29.101562 29.441406 -30.171875 26.921875 -31.171875 C 24.015625 -32.296875 21.171875 -33.5625 18.390625 -34.96875 C 15.609375 -36.382812 13.3125 -38.222656 11.5 -40.484375 C 9.695312 -42.742188 8.796875 -45.722656 8.796875 -49.421875 C 8.796875 -52.898438 9.65625 -55.910156 11.375 -58.453125 C 13.09375 -60.992188 15.503906 -62.96875 18.609375 -64.375 C 21.722656 -65.789062 25.320312 -66.5 29.40625 -66.5 C 35.269531 -66.5 41.050781 -65.066406 46.75 -62.203125 L 44.265625 -54.96875 C 42.921875 -55.789062 41.398438 -56.515625 39.703125 -57.140625 C 38.015625 -57.773438 36.273438 -58.265625 34.484375 -58.609375 C 32.703125 -58.960938 31.007812 -59.140625 29.40625 -59.140625 C 25.707031 -59.140625 22.726562 -58.257812 20.46875 -56.5 C 18.207031 -54.738281 17.078125 -52.421875 17.078125 -49.546875 C 17.078125 -47.679688 17.585938 -46.0625 18.609375 -44.6875 C 19.628906 -43.320312 21.179688 -42.050781 23.265625 -40.875 C 25.359375 -39.707031 27.96875 -38.472656 31.09375 -37.171875 C 34.09375 -35.953125 37.023438 -34.566406 39.890625 -33.015625 C 42.765625 -31.472656 45.144531 -29.503906 47.03125 -27.109375 C 48.925781 -24.722656 49.875 -21.617188 49.875 -17.796875 C 49.875 -14.054688 48.90625 -10.738281 46.96875 -7.84375 C 45.039062 -4.957031 42.367188 -2.710938 38.953125 -1.109375 C 35.546875 0.492188 31.582031 1.296875 27.0625 1.296875 C 19.539062 1.296875 12.582031 -1.023438 6.1875 -5.671875 Z M 6.1875 -5.671875 "/></g></g></g></g></g><g transform="matrix(1, 0, 0, 1, 197, 242)"><g clip-path="url(#b19356dcce)"><g fill="#234147" fill-opacity="1"><g transform="translate(0.511395, 305.344479)"><g><path d="M 64.984375 0 L 18.4375 0 L 18.4375 -226.6875 L 64.984375 -226.6875 L 64.984375 -131.9375 L 163.0625 -131.9375 L 163.0625 -226.6875 L 209.609375 -226.6875 L 209.609375 0 L 163.0625 0 L 163.0625 -91.28125 L 64.984375 -91.28125 Z M 64.984375 0 "/></g></g></g></g></g></svg>