<svg xmlns="http://www.w3.org/2000/svg" xmlns:xlink="http://www.w3.org/1999/xlink" width="1080" zoomAndPan="magnify" viewBox="0 0 810 809.999993" height="1080" preserveAspectRatio="xMidYMid meet" version="1.0"><defs><g/><clipPath id="1885a68779"><path d="M 0 402 L 304 402 L 304 658.5 L 0 658.5 Z M 0 402 " clip-rule="nonzero"/></clipPath><clipPath id="992830b937"><rect x="0" width="372" y="0" height="682"/></clipPath><clipPath id="4c4ae4acfd"><rect x="0" width="407" y="0" height="682"/></clipPath></defs><path fill="#1c3439" d="M 575.941406 98.136719 C 574.269531 96.273438 572.398438 94.699219 570.414062 93.355469 C 571.464844 89.171875 571.09375 85.488281 568.726562 82.855469 C 564.371094 78.007812 555.761719 79.496094 546.644531 84.203125 C 552.296875 75.640625 554.6875 67.234375 550.328125 62.386719 C 547.96875 59.757812 544.34375 59.023438 540.085938 59.617188 C 538.957031 57.492188 537.585938 55.457031 535.90625 53.585938 C 525.613281 42.132812 508.472656 40.429688 496.167969 49.066406 L 494.257812 43.492188 L 485.691406 61.710938 L 504.714844 55.132812 L 499.941406 52.902344 C 510.03125 46.351562 523.691406 47.894531 531.980469 57.117188 C 533.054688 58.316406 533.980469 59.59375 534.78125 60.925781 C 528.339844 63.117188 521.121094 67.5 514.652344 72.835938 L 512.796875 67.421875 L 504.230469 85.636719 L 523.253906 79.058594 L 518.234375 76.714844 C 525.324219 70.863281 531.921875 67.320312 537.019531 65.71875 C 540.121094 74.867188 537.730469 85.402344 530.105469 92.257812 L 515.976562 104.957031 L 517.433594 106.578125 L 513.539062 110.074219 L 511.9375 108.292969 L 468.109375 147.679688 L 469.875 149.644531 L 464.109375 154.824219 L 465.761719 156.664062 C 461.527344 152.089844 454.371094 151.742188 449.71875 155.921875 C 446.710938 158.625 445.480469 162.574219 446.089844 166.296875 C 438.984375 168.773438 429.769531 175.476562 425.488281 193.316406 C 422.640625 205.175781 408.359375 211.398438 391.816406 218.609375 C 370.976562 227.691406 345.035156 238.996094 331.859375 266.445312 C 314.375 302.875 284.933594 358.699219 271.675781 383.640625 C 273.261719 384.488281 274.703125 385.566406 275.960938 386.832031 C 289.046875 362.222656 318.929688 305.589844 336.621094 268.730469 C 348.945312 243.054688 372.84375 232.640625 393.929688 223.449219 C 411.761719 215.679688 427.164062 208.964844 430.625 194.550781 C 434.457031 178.582031 442.328125 173 448.066406 171.09375 C 448.308594 171.433594 448.570312 171.765625 448.855469 172.082031 C 453.074219 176.777344 460.324219 177.164062 465.019531 172.945312 C 469.667969 168.765625 470.085938 161.613281 465.988281 156.917969 L 467.640625 158.753906 L 473.40625 153.570312 L 475.171875 155.535156 L 519 116.148438 L 517.394531 114.363281 L 521.289062 110.867188 L 522.746094 112.488281 L 536.875 99.789062 C 544.5 92.933594 555.230469 91.679688 563.996094 95.738281 C 561.863281 100.632812 557.640625 106.820312 551.066406 113.246094 L 549.265625 108.003906 L 540.703125 126.222656 L 559.726562 119.644531 L 554.546875 117.222656 C 560.53125 111.367188 565.679688 104.65625 568.546875 98.488281 C 569.777344 99.421875 570.945312 100.472656 572.015625 101.664062 C 580.304688 110.886719 580.386719 124.636719 572.796875 133.96875 L 571.085938 128.984375 L 562.523438 147.199219 L 581.546875 140.621094 L 576.210938 138.128906 C 586.105469 126.8125 586.238281 109.589844 575.941406 98.136719 Z M 461.488281 169.019531 C 459.746094 170.582031 457.355469 170.941406 455.292969 170.203125 C 456.546875 170.160156 457.636719 169.214844 457.808594 167.925781 C 458.003906 166.480469 456.992188 165.148438 455.546875 164.953125 C 455.484375 164.949219 453.808594 164.753906 451.257812 165.078125 C 451.0625 163.179688 451.726562 161.21875 453.25 159.851562 C 455.777344 157.582031 459.679688 157.789062 461.953125 160.316406 C 464.222656 162.84375 464.015625 166.746094 461.488281 169.019531 Z M 546.402344 65.917969 C 548.234375 67.953125 547.1875 73.441406 542.863281 80.367188 C 544.019531 75.210938 543.8125 69.804688 542.21875 64.710938 C 544.179688 64.640625 545.625 65.054688 546.402344 65.917969 Z M 550.054688 88.367188 C 557.402344 84.804688 562.96875 84.351562 564.800781 86.386719 C 565.574219 87.25 565.832031 88.734375 565.550781 90.675781 C 560.65625 88.550781 555.304688 87.769531 550.054688 88.367188 Z M 550.054688 88.367188 " fill-opacity="1" fill-rule="nonzero"/><path fill="#1c3439" d="M 105.957031 454.167969 L 108.945312 521.5 L 61.648438 583.757812 C 54.292969 593.4375 56.179688 607.246094 65.859375 614.597656 C 69.839844 617.621094 74.511719 619.082031 79.152344 619.082031 C 85.796875 619.082031 92.367188 616.082031 96.695312 610.386719 L 148.808594 541.789062 C 151.921875 537.695312 153.5 532.640625 153.273438 527.5 L 151.386719 485.054688 L 106.226562 454.371094 C 106.132812 454.308594 106.046875 454.234375 105.957031 454.167969 Z M 105.957031 454.167969 " fill-opacity="1" fill-rule="nonzero"/><path fill="#1c3439" d="M 131.875 303.523438 C 129.042969 303.523438 126.273438 303.242188 123.589844 302.726562 C 115.675781 307.636719 108.566406 315.890625 104.363281 328.113281 C 92.382812 363.632812 89.804688 386.753906 94.359375 425.867188 C 96.015625 434.382812 98.933594 440.589844 102.632812 445.121094 C 104.15625 447.375 106.113281 449.394531 108.5 451.019531 L 181.542969 500.648438 L 202.597656 601.636719 C 204.765625 612.019531 213.917969 619.15625 224.121094 619.15625 C 225.609375 619.15625 227.121094 619.003906 228.636719 618.6875 C 240.535156 616.207031 248.167969 604.550781 245.6875 592.652344 L 222.816406 482.953125 C 221.652344 477.363281 218.359375 472.445312 213.636719 469.238281 L 157.339844 430.988281 C 157.328125 430.792969 157.320312 430.609375 157.308594 430.414062 C 156.523438 424.5625 156.222656 418.519531 156.261719 412.398438 L 121.371094 344.546875 C 119.15625 340.238281 118.753906 335.328125 120.234375 330.714844 C 121.710938 326.101562 124.898438 322.339844 129.207031 320.125 C 131.765625 318.8125 134.628906 318.117188 137.488281 318.117188 C 144.320312 318.117188 150.503906 321.886719 153.628906 327.960938 L 164.738281 349.574219 C 165.40625 346.296875 166.046875 343.144531 166.632812 340.15625 C 168.992188 331.964844 168.804688 323.019531 166.398438 315.429688 L 170.164062 313.945312 L 312.273438 257.867188 C 319.511719 255.011719 323.0625 246.832031 320.207031 239.59375 C 317.351562 232.359375 309.164062 228.808594 301.933594 231.664062 L 167.84375 284.578125 C 159.960938 296.011719 146.78125 303.523438 131.875 303.523438 Z M 131.875 303.523438 " fill-opacity="1" fill-rule="nonzero"/><g clip-path="url(#1885a68779)"><path fill="#1c3439" d="M 275.9375 412.4375 C 279.304688 423.304688 281.785156 442.183594 281.785156 471.792969 C 281.785156 499.613281 275.320312 515.558594 267.429688 521.386719 C 260.574219 514.359375 255.277344 498.910156 255.277344 473.730469 C 255.277344 449.832031 257.042969 430.605469 260.125 418.136719 L 254.59375 418.664062 C 251.023438 433.867188 249.996094 454.777344 249.996094 473.730469 C 249.996094 496.738281 254.582031 514.375 262.386719 523.726562 C 261.65625 523.875 260.925781 523.957031 260.195312 523.957031 C 249.449219 523.957031 238.609375 507.828125 238.609375 471.792969 C 238.609375 452.097656 243.976562 432.667969 250.558594 419.046875 L 244.480469 419.625 C 237.910156 434.371094 233.324219 453.714844 233.324219 471.792969 C 233.324219 506.691406 243.871094 529.238281 260.195312 529.238281 C 262.523438 529.238281 264.730469 528.765625 266.808594 527.878906 C 269.835938 530.035156 273.203125 531.175781 276.867188 531.175781 C 277.175781 531.175781 277.480469 531.152344 277.785156 531.136719 C 276.113281 534.015625 274.425781 536.855469 272.769531 539.628906 C 260.207031 560.695312 249.355469 578.890625 264.226562 588.152344 C 273.636719 594.015625 278.429688 602.875 276.152344 610.199219 C 274.539062 615.390625 264.6875 632.097656 205.65625 629.40625 C 172.433594 627.878906 116.28125 627.246094 113.59375 640.097656 C 112.949219 643.164062 114.996094 645.90625 119.683594 648.265625 C 104.183594 651.050781 50.433594 652.785156 1.609375 653.050781 C 0.148438 653.058594 -1.027344 654.246094 -1.015625 655.707031 C -1.007812 657.160156 0.171875 658.332031 1.625 658.332031 C 1.628906 658.332031 1.632812 658.332031 1.636719 658.332031 C 1.945312 658.332031 32.75 658.152344 63.304688 657.207031 C 127.179688 655.226562 127.742188 652.148438 128.285156 649.175781 C 128.632812 647.257812 127.425781 645.75 124.683594 644.695312 C 119.480469 642.695312 118.808594 641.191406 118.761719 641.191406 L 118.757812 641.191406 C 119.734375 638.511719 137.730469 631.578125 205.414062 634.679688 C 264.277344 637.402344 278.171875 621.484375 281.195312 611.769531 C 284.246094 601.960938 278.679688 590.933594 267.019531 583.671875 C 257.050781 577.460938 264.433594 563.917969 277.304688 542.335938 C 279.875 538.03125 282.519531 533.585938 285.0625 529.046875 C 296.632812 522.675781 303.738281 502.367188 303.738281 473.730469 C 303.738281 446.042969 293.046875 415.382812 280.9375 402.839844 C 280.273438 406.515625 278.503906 409.855469 275.9375 412.4375 Z M 276.867188 525.894531 C 275.179688 525.894531 273.488281 525.496094 271.839844 524.683594 C 281.355469 516.4375 287.066406 497.464844 287.066406 471.789062 C 287.066406 452.074219 285.972656 430.226562 282.078125 414.898438 C 289.3125 430.28125 294.773438 457.574219 294.773438 484.535156 C 294.773438 497.746094 288.609375 511.6875 281.292969 524.949219 C 279.835938 525.574219 278.351562 525.894531 276.867188 525.894531 Z M 276.867188 525.894531 " fill-opacity="1" fill-rule="nonzero"/></g><path fill="#1c3439" d="M 261.769531 385.617188 L 182.589844 393.144531 L 150.027344 329.8125 C 146.472656 322.894531 137.976562 320.171875 131.058594 323.726562 C 124.140625 327.285156 121.417969 335.777344 124.976562 342.695312 L 161.902344 414.511719 C 164.328125 419.234375 169.183594 422.15625 174.421875 422.15625 C 174.863281 422.15625 175.3125 422.132812 175.757812 422.089844 L 264.4375 413.660156 C 272.179688 412.921875 277.859375 406.046875 277.125 398.304688 C 276.390625 390.558594 269.488281 384.875 261.769531 385.617188 Z M 261.769531 385.617188 " fill-opacity="1" fill-rule="nonzero"/><path fill="#1c3439" d="M 171.488281 259.859375 C 171.488281 261.160156 171.425781 262.453125 171.296875 263.742188 C 171.171875 265.035156 170.980469 266.316406 170.726562 267.589844 C 170.476562 268.863281 170.160156 270.121094 169.785156 271.359375 C 169.40625 272.601562 168.96875 273.824219 168.472656 275.019531 C 167.976562 276.21875 167.421875 277.390625 166.8125 278.535156 C 166.199219 279.679688 165.535156 280.792969 164.8125 281.871094 C 164.09375 282.949219 163.320312 283.988281 162.496094 284.992188 C 161.675781 285.996094 160.804688 286.957031 159.886719 287.871094 C 158.96875 288.789062 158.007812 289.660156 157.007812 290.484375 C 156.003906 291.308594 154.960938 292.078125 153.882812 292.800781 C 152.804688 293.519531 151.691406 294.1875 150.550781 294.796875 C 149.40625 295.410156 148.234375 295.964844 147.035156 296.460938 C 145.835938 296.957031 144.617188 297.394531 143.375 297.769531 C 142.132812 298.148438 140.875 298.460938 139.601562 298.714844 C 138.332031 298.96875 137.050781 299.15625 135.757812 299.285156 C 134.464844 299.414062 133.171875 299.476562 131.875 299.476562 C 130.578125 299.476562 129.28125 299.414062 127.992188 299.285156 C 126.699219 299.15625 125.417969 298.96875 124.144531 298.714844 C 122.875 298.460938 121.617188 298.148438 120.375 297.769531 C 119.132812 297.394531 117.914062 296.957031 116.714844 296.460938 C 115.515625 295.964844 114.34375 295.410156 113.199219 294.796875 C 112.054688 294.1875 110.945312 293.519531 109.867188 292.800781 C 108.789062 292.078125 107.746094 291.308594 106.742188 290.484375 C 105.742188 289.660156 104.78125 288.789062 103.863281 287.871094 C 102.945312 286.957031 102.074219 285.996094 101.253906 284.992188 C 100.429688 283.988281 99.65625 282.949219 98.9375 281.871094 C 98.214844 280.792969 97.550781 279.679688 96.9375 278.535156 C 96.328125 277.390625 95.773438 276.21875 95.277344 275.019531 C 94.777344 273.824219 94.34375 272.601562 93.964844 271.359375 C 93.589844 270.121094 93.273438 268.863281 93.019531 267.589844 C 92.769531 266.316406 92.578125 265.035156 92.449219 263.742188 C 92.324219 262.453125 92.261719 261.160156 92.261719 259.859375 C 92.261719 258.5625 92.324219 257.269531 92.449219 255.976562 C 92.578125 254.6875 92.769531 253.40625 93.019531 252.132812 C 93.273438 250.859375 93.589844 249.601562 93.964844 248.363281 C 94.34375 247.121094 94.777344 245.898438 95.277344 244.703125 C 95.773438 243.503906 96.328125 242.332031 96.9375 241.1875 C 97.550781 240.042969 98.214844 238.929688 98.9375 237.851562 C 99.65625 236.773438 100.429688 235.734375 101.253906 234.730469 C 102.074219 233.726562 102.945312 232.765625 103.863281 231.847656 C 104.78125 230.933594 105.742188 230.0625 106.742188 229.238281 C 107.746094 228.414062 108.789062 227.644531 109.867188 226.921875 C 110.945312 226.203125 112.054688 225.535156 113.199219 224.925781 C 114.34375 224.3125 115.515625 223.757812 116.714844 223.261719 C 117.914062 222.765625 119.132812 222.328125 120.375 221.953125 C 121.617188 221.574219 122.875 221.261719 124.144531 221.007812 C 125.417969 220.753906 126.699219 220.566406 127.992188 220.4375 C 129.28125 220.308594 130.578125 220.246094 131.875 220.246094 C 133.171875 220.246094 134.464844 220.308594 135.757812 220.4375 C 137.050781 220.566406 138.332031 220.753906 139.601562 221.007812 C 140.875 221.261719 142.132812 221.574219 143.375 221.953125 C 144.617188 222.328125 145.835938 222.765625 147.035156 223.261719 C 148.234375 223.757812 149.40625 224.3125 150.550781 224.925781 C 151.691406 225.535156 152.804688 226.203125 153.882812 226.921875 C 154.960938 227.644531 156.003906 228.414062 157.007812 229.238281 C 158.007812 230.0625 158.96875 230.933594 159.886719 231.847656 C 160.804688 232.765625 161.675781 233.726562 162.496094 234.730469 C 163.320312 235.734375 164.09375 236.773438 164.8125 237.851562 C 165.535156 238.929688 166.199219 240.042969 166.8125 241.1875 C 167.421875 242.332031 167.976562 243.503906 168.472656 244.703125 C 168.96875 245.898438 169.40625 247.121094 169.785156 248.363281 C 170.160156 249.601562 170.476562 250.859375 170.726562 252.132812 C 170.980469 253.40625 171.171875 254.6875 171.296875 255.976562 C 171.425781 257.269531 171.488281 258.5625 171.488281 259.859375 Z M 171.488281 259.859375 " fill-opacity="1" fill-rule="nonzero"/><g transform="matrix(1, 0, 0, 1, 438, 99)"><g clip-path="url(#992830b937)"><g fill="#234147" fill-opacity="1"><g transform="translate(0.0242393, 541.569764)"><g><path d="M 115.28125 0 L 32.703125 0 L 32.703125 -402.15625 L 115.28125 -402.15625 L 115.28125 -234.0625 L 289.28125 -234.0625 L 289.28125 -402.15625 L 371.859375 -402.15625 L 371.859375 0 L 289.28125 0 L 289.28125 -161.9375 L 115.28125 -161.9375 Z M 115.28125 0 "/></g></g></g></g></g><g transform="matrix(1, 0, 0, 1, 361, 99)"><g clip-path="url(#4c4ae4acfd)"><g fill="#45818e" fill-opacity="1"><g transform="translate(0.694868, 541.569764)"><g><path d="M 115.28125 0 L 32.703125 0 L 32.703125 -402.15625 L 115.28125 -402.15625 L 115.28125 -234.0625 L 289.28125 -234.0625 L 289.28125 -402.15625 L 371.859375 -402.15625 L 371.859375 0 L 289.28125 0 L 289.28125 -161.9375 L 115.28125 -161.9375 Z M 115.28125 0 "/></g></g></g></g></g></svg>