<svg xmlns="http://www.w3.org/2000/svg" xmlns:xlink="http://www.w3.org/1999/xlink" width="1080" zoomAndPan="magnify" viewBox="0 0 810 809.999993" height="1080" preserveAspectRatio="xMidYMid meet" version="1.0"><defs><g/><clipPath id="0d97681a0f"><path d="M 154.679688 404 L 314 404 L 314 536.78125 L 154.679688 536.78125 Z M 154.679688 404 " clip-rule="nonzero"/></clipPath><clipPath id="5d2715fda8"><rect x="0" width="211" y="0" height="355"/></clipPath><clipPath id="3be60d9ca7"><rect x="0" width="211" y="0" height="355"/></clipPath></defs><path fill="#1c3439" d="M 454.609375 245.726562 C 453.738281 244.757812 452.765625 243.941406 451.734375 243.242188 C 452.28125 241.070312 452.089844 239.15625 450.859375 237.789062 C 448.597656 235.269531 444.121094 236.042969 439.386719 238.488281 C 442.324219 234.039062 443.566406 229.671875 441.300781 227.152344 C 440.074219 225.789062 438.191406 225.40625 435.976562 225.714844 C 435.390625 224.609375 434.679688 223.554688 433.808594 222.582031 C 428.460938 216.628906 419.554688 215.746094 413.164062 220.234375 L 412.167969 217.335938 L 407.71875 226.800781 L 417.601562 223.382812 L 415.121094 222.226562 C 420.363281 218.820312 427.460938 219.625 431.765625 224.417969 C 432.324219 225.039062 432.808594 225.703125 433.222656 226.394531 C 429.875 227.535156 426.125 229.808594 422.765625 232.582031 L 421.800781 229.769531 L 417.351562 239.234375 L 427.234375 235.816406 L 424.625 234.597656 C 428.308594 231.558594 431.738281 229.71875 434.386719 228.886719 C 436 233.636719 434.753906 239.113281 430.792969 242.671875 L 423.453125 249.269531 L 424.210938 250.113281 L 422.1875 251.929688 L 421.355469 251.003906 L 398.585938 271.464844 L 399.503906 272.488281 L 396.507812 275.179688 L 397.363281 276.132812 C 395.164062 273.757812 391.445312 273.578125 389.03125 275.75 C 387.46875 277.152344 386.828125 279.207031 387.144531 281.140625 C 383.453125 282.425781 378.664062 285.90625 376.441406 295.175781 C 374.960938 301.339844 367.539062 304.570312 358.949219 308.316406 C 348.117188 313.035156 334.640625 318.910156 327.796875 333.171875 C 318.710938 352.097656 303.417969 381.101562 296.53125 394.058594 C 297.355469 394.5 298.101562 395.058594 298.757812 395.71875 C 305.554688 382.929688 321.078125 353.507812 330.269531 334.359375 C 336.675781 321.019531 349.089844 315.605469 360.042969 310.832031 C 369.308594 306.792969 377.3125 303.308594 379.109375 295.816406 C 381.101562 287.519531 385.1875 284.621094 388.171875 283.632812 C 388.296875 283.808594 388.433594 283.980469 388.582031 284.144531 C 390.773438 286.585938 394.539062 286.785156 396.976562 284.59375 C 399.394531 282.421875 399.609375 278.707031 397.480469 276.265625 L 398.339844 277.21875 L 401.335938 274.527344 L 402.253906 275.546875 L 425.023438 255.085938 L 424.191406 254.15625 L 426.210938 252.339844 L 426.96875 253.183594 L 434.308594 246.585938 C 438.273438 243.023438 443.847656 242.371094 448.402344 244.480469 C 447.292969 247.023438 445.097656 250.238281 441.683594 253.578125 L 440.75 250.855469 L 436.300781 260.316406 L 446.183594 256.898438 L 443.492188 255.644531 C 446.601562 252.601562 449.277344 249.113281 450.765625 245.910156 C 451.40625 246.394531 452.011719 246.941406 452.566406 247.558594 C 456.875 252.351562 456.917969 259.492188 452.972656 264.34375 L 452.085938 261.753906 L 447.636719 271.21875 L 457.519531 267.800781 L 454.746094 266.503906 C 459.890625 260.625 459.957031 251.679688 454.609375 245.726562 Z M 395.144531 282.554688 C 394.238281 283.367188 393 283.554688 391.925781 283.167969 C 392.578125 283.144531 393.144531 282.65625 393.234375 281.984375 C 393.335938 281.234375 392.808594 280.542969 392.054688 280.441406 C 392.023438 280.4375 391.15625 280.339844 389.828125 280.503906 C 389.726562 279.519531 390.074219 278.5 390.863281 277.789062 C 392.175781 276.609375 394.207031 276.71875 395.386719 278.03125 C 396.566406 279.34375 396.457031 281.371094 395.144531 282.554688 Z M 439.261719 228.988281 C 440.210938 230.046875 439.667969 232.894531 437.421875 236.496094 C 438.023438 233.816406 437.914062 231.007812 437.085938 228.363281 C 438.105469 228.324219 438.859375 228.539062 439.261719 228.988281 Z M 441.15625 240.652344 C 444.976562 238.800781 447.867188 238.5625 448.820312 239.621094 C 449.222656 240.070312 449.355469 240.839844 449.210938 241.851562 C 446.667969 240.746094 443.886719 240.339844 441.15625 240.652344 Z M 441.15625 240.652344 " fill-opacity="1" fill-rule="nonzero"/><path fill="#1c3439" d="M 210.429688 430.699219 L 211.984375 465.683594 L 187.410156 498.027344 C 183.589844 503.054688 184.570312 510.230469 189.597656 514.050781 C 191.667969 515.621094 194.09375 516.378906 196.507812 516.378906 C 199.957031 516.378906 203.371094 514.820312 205.621094 511.863281 L 232.695312 476.222656 C 234.3125 474.09375 235.132812 471.46875 235.011719 468.800781 L 234.035156 446.746094 L 210.570312 430.804688 C 210.523438 430.773438 210.480469 430.734375 210.429688 430.699219 Z M 210.429688 430.699219 " fill-opacity="1" fill-rule="nonzero"/><path fill="#1c3439" d="M 223.898438 352.433594 C 222.425781 352.433594 220.988281 352.289062 219.589844 352.019531 C 215.480469 354.570312 211.785156 358.859375 209.601562 365.210938 C 203.378906 383.664062 202.039062 395.675781 204.40625 415.996094 C 205.265625 420.421875 206.78125 423.644531 208.703125 426 C 209.496094 427.171875 210.511719 428.222656 211.753906 429.066406 L 249.699219 454.847656 L 260.640625 507.316406 C 261.765625 512.710938 266.519531 516.417969 271.824219 516.417969 C 272.597656 516.417969 273.382812 516.339844 274.167969 516.175781 C 280.351562 514.886719 284.316406 508.828125 283.027344 502.648438 L 271.144531 445.65625 C 270.539062 442.75 268.828125 440.195312 266.375 438.53125 L 237.125 418.65625 C 237.121094 418.554688 237.117188 418.460938 237.109375 418.359375 C 236.703125 415.320312 236.546875 412.179688 236.566406 409 L 218.441406 373.746094 C 217.289062 371.507812 217.078125 368.957031 217.847656 366.5625 C 218.617188 364.164062 220.273438 362.210938 222.511719 361.058594 C 223.839844 360.375 225.328125 360.015625 226.8125 360.015625 C 230.363281 360.015625 233.578125 361.976562 235.199219 365.132812 L 240.972656 376.359375 C 241.316406 374.65625 241.652344 373.019531 241.953125 371.46875 C 243.183594 367.210938 243.082031 362.5625 241.832031 358.621094 L 243.789062 357.847656 L 317.621094 328.714844 C 321.382812 327.230469 323.226562 322.980469 321.742188 319.21875 C 320.257812 315.460938 316.007812 313.617188 312.25 315.101562 L 242.582031 342.589844 C 238.488281 348.53125 231.640625 352.433594 223.898438 352.433594 Z M 223.898438 352.433594 " fill-opacity="1" fill-rule="nonzero"/><g clip-path="url(#0d97681a0f)"><path fill="#1c3439" d="M 298.742188 409.019531 C 300.492188 414.664062 301.78125 424.472656 301.78125 439.855469 C 301.78125 454.3125 298.421875 462.59375 294.324219 465.625 C 290.761719 461.972656 288.007812 453.945312 288.007812 440.863281 C 288.007812 428.445312 288.925781 418.457031 290.527344 411.980469 L 287.65625 412.253906 C 285.800781 420.152344 285.265625 431.015625 285.265625 440.863281 C 285.265625 452.816406 287.648438 461.980469 291.703125 466.839844 C 291.324219 466.914062 290.945312 466.957031 290.566406 466.957031 C 284.980469 466.957031 279.347656 458.578125 279.347656 439.855469 C 279.347656 429.625 282.136719 419.53125 285.558594 412.453125 L 282.402344 412.753906 C 278.988281 420.414062 276.605469 430.464844 276.605469 439.855469 C 276.605469 457.988281 282.085938 469.703125 290.566406 469.703125 C 291.773438 469.703125 292.921875 469.457031 294 468.996094 C 295.574219 470.113281 297.324219 470.710938 299.226562 470.710938 C 299.386719 470.710938 299.542969 470.695312 299.703125 470.6875 C 298.835938 472.183594 297.957031 473.660156 297.097656 475.101562 C 290.570312 486.046875 284.933594 495.5 292.660156 500.3125 C 297.546875 503.355469 300.039062 507.960938 298.855469 511.765625 C 298.015625 514.460938 292.898438 523.140625 262.230469 521.742188 C 244.96875 520.949219 215.796875 520.621094 214.398438 527.296875 C 214.0625 528.890625 215.125 530.316406 217.5625 531.542969 C 209.511719 532.988281 181.582031 533.890625 156.21875 534.027344 C 155.460938 534.03125 154.847656 534.648438 154.855469 535.40625 C 154.859375 536.164062 155.472656 536.773438 156.226562 536.773438 C 156.230469 536.773438 156.230469 536.773438 156.234375 536.773438 C 156.394531 536.769531 172.398438 536.679688 188.269531 536.1875 C 221.457031 535.15625 221.75 533.558594 222.03125 532.015625 C 222.214844 531.019531 221.585938 530.234375 220.160156 529.6875 C 217.457031 528.648438 217.109375 527.867188 217.082031 527.867188 C 217.589844 526.472656 226.9375 522.871094 262.105469 524.484375 C 292.6875 525.898438 299.90625 517.628906 301.472656 512.578125 C 303.058594 507.484375 300.167969 501.753906 294.109375 497.980469 C 288.929688 494.757812 292.765625 487.71875 299.453125 476.507812 C 300.789062 474.269531 302.164062 471.960938 303.484375 469.601562 C 309.496094 466.292969 313.1875 455.742188 313.1875 440.863281 C 313.1875 426.480469 307.632812 410.550781 301.339844 404.03125 C 300.996094 405.945312 300.078125 407.679688 298.742188 409.019531 Z M 299.226562 467.964844 C 298.347656 467.964844 297.472656 467.757812 296.613281 467.335938 C 301.558594 463.050781 304.527344 453.195312 304.527344 439.855469 C 304.527344 429.613281 303.957031 418.261719 301.933594 410.296875 C 305.691406 418.289062 308.527344 432.46875 308.527344 446.476562 C 308.527344 453.339844 305.328125 460.582031 301.523438 467.476562 C 300.769531 467.800781 299.996094 467.964844 299.226562 467.964844 Z M 299.226562 467.964844 " fill-opacity="1" fill-rule="nonzero"/></g><path fill="#1c3439" d="M 291.382812 395.085938 L 250.246094 398.996094 L 233.328125 366.09375 C 231.480469 362.5 227.066406 361.082031 223.472656 362.929688 C 219.878906 364.777344 218.464844 369.191406 220.3125 372.785156 L 239.496094 410.097656 C 240.757812 412.550781 243.28125 414.066406 246 414.066406 C 246.230469 414.066406 246.464844 414.058594 246.695312 414.035156 L 292.769531 409.652344 C 296.789062 409.273438 299.742188 405.699219 299.359375 401.675781 C 298.976562 397.652344 295.394531 394.699219 291.382812 395.085938 Z M 291.382812 395.085938 " fill-opacity="1" fill-rule="nonzero"/><path fill="#1c3439" d="M 244.476562 329.75 C 244.476562 330.421875 244.445312 331.097656 244.378906 331.765625 C 244.3125 332.4375 244.214844 333.105469 244.082031 333.765625 C 243.949219 334.425781 243.789062 335.078125 243.59375 335.722656 C 243.394531 336.371094 243.167969 337.003906 242.910156 337.625 C 242.652344 338.25 242.367188 338.855469 242.046875 339.453125 C 241.730469 340.046875 241.382812 340.625 241.007812 341.183594 C 240.636719 341.746094 240.234375 342.285156 239.804688 342.804688 C 239.378906 343.328125 238.925781 343.828125 238.449219 344.304688 C 237.972656 344.78125 237.472656 345.230469 236.953125 345.660156 C 236.433594 346.085938 235.890625 346.488281 235.332031 346.863281 C 234.769531 347.238281 234.191406 347.582031 233.597656 347.902344 C 233.003906 348.21875 232.394531 348.507812 231.773438 348.765625 C 231.148438 349.023438 230.515625 349.25 229.871094 349.445312 C 229.226562 349.640625 228.574219 349.804688 227.910156 349.9375 C 227.25 350.066406 226.585938 350.164062 225.914062 350.230469 C 225.242188 350.296875 224.570312 350.332031 223.898438 350.332031 C 223.222656 350.332031 222.550781 350.296875 221.878906 350.230469 C 221.207031 350.164062 220.542969 350.066406 219.882812 349.9375 C 219.21875 349.804688 218.566406 349.640625 217.921875 349.445312 C 217.277344 349.25 216.644531 349.023438 216.019531 348.765625 C 215.398438 348.507812 214.789062 348.21875 214.195312 347.902344 C 213.601562 347.582031 213.023438 347.238281 212.460938 346.863281 C 211.902344 346.488281 211.359375 346.085938 210.839844 345.660156 C 210.320312 345.230469 209.820312 344.78125 209.34375 344.304688 C 208.867188 343.828125 208.414062 343.328125 207.988281 342.804688 C 207.558594 342.285156 207.160156 341.746094 206.785156 341.183594 C 206.410156 340.625 206.0625 340.046875 205.746094 339.453125 C 205.425781 338.855469 205.140625 338.25 204.882812 337.625 C 204.625 337.003906 204.398438 336.371094 204.203125 335.722656 C 204.003906 335.078125 203.84375 334.425781 203.710938 333.765625 C 203.578125 333.105469 203.480469 332.4375 203.414062 331.765625 C 203.347656 331.097656 203.316406 330.421875 203.316406 329.75 C 203.316406 329.074219 203.347656 328.402344 203.414062 327.730469 C 203.480469 327.0625 203.578125 326.394531 203.710938 325.734375 C 203.84375 325.074219 204.003906 324.421875 204.203125 323.773438 C 204.398438 323.128906 204.625 322.496094 204.882812 321.875 C 205.140625 321.25 205.425781 320.640625 205.746094 320.046875 C 206.0625 319.453125 206.410156 318.875 206.785156 318.316406 C 207.160156 317.753906 207.558594 317.214844 207.988281 316.691406 C 208.414062 316.171875 208.867188 315.671875 209.34375 315.195312 C 209.820312 314.71875 210.320312 314.269531 210.839844 313.839844 C 211.359375 313.414062 211.902344 313.011719 212.460938 312.636719 C 213.023438 312.261719 213.601562 311.917969 214.195312 311.597656 C 214.789062 311.28125 215.398438 310.992188 216.019531 310.734375 C 216.644531 310.476562 217.277344 310.25 217.921875 310.054688 C 218.566406 309.859375 219.21875 309.695312 219.882812 309.5625 C 220.542969 309.433594 221.207031 309.332031 221.878906 309.265625 C 222.550781 309.203125 223.222656 309.167969 223.898438 309.167969 C 224.570312 309.167969 225.242188 309.203125 225.914062 309.265625 C 226.585938 309.332031 227.25 309.433594 227.910156 309.5625 C 228.574219 309.695312 229.226562 309.859375 229.871094 310.054688 C 230.515625 310.25 231.148438 310.476562 231.773438 310.734375 C 232.394531 310.992188 233.003906 311.28125 233.597656 311.597656 C 234.191406 311.917969 234.769531 312.261719 235.332031 312.636719 C 235.890625 313.011719 236.433594 313.414062 236.953125 313.839844 C 237.472656 314.269531 237.972656 314.71875 238.449219 315.195312 C 238.925781 315.671875 239.378906 316.171875 239.804688 316.691406 C 240.234375 317.214844 240.636719 317.753906 241.007812 318.316406 C 241.382812 318.875 241.730469 319.453125 242.046875 320.046875 C 242.367188 320.640625 242.652344 321.25 242.910156 321.875 C 243.167969 322.496094 243.394531 323.128906 243.59375 323.773438 C 243.789062 324.421875 243.949219 325.074219 244.082031 325.734375 C 244.214844 326.394531 244.3125 327.0625 244.378906 327.730469 C 244.445312 328.402344 244.476562 329.074219 244.476562 329.75 Z M 244.476562 329.75 " fill-opacity="1" fill-rule="nonzero"/><g transform="matrix(1, 0, 0, 1, 393, 246)"><g clip-path="url(#5d2715fda8)"><g fill="#234147" fill-opacity="1"><g transform="translate(0.271947, 281.548674)"><g><path d="M 59.890625 0 L 17 0 L 17 -208.953125 L 59.890625 -208.953125 L 59.890625 -121.609375 L 150.296875 -121.609375 L 150.296875 -208.953125 L 193.203125 -208.953125 L 193.203125 0 L 150.296875 0 L 150.296875 -84.140625 L 59.890625 -84.140625 Z M 59.890625 0 "/></g></g></g></g></g><g transform="matrix(1, 0, 0, 1, 343, 246)"><g clip-path="url(#3be60d9ca7)"><g fill="#45818e" fill-opacity="1"><g transform="translate(0.302496, 281.548674)"><g><path d="M 59.890625 0 L 17 0 L 17 -208.953125 L 59.890625 -208.953125 L 59.890625 -121.609375 L 150.296875 -121.609375 L 150.296875 -208.953125 L 193.203125 -208.953125 L 193.203125 0 L 150.296875 0 L 150.296875 -84.140625 L 59.890625 -84.140625 Z M 59.890625 0 "/></g></g></g></g></g></svg>